<?xml version="1.0" encoding="UTF-8" standalone="no"?>
<!-- Created with Inkscape (http://www.inkscape.org/) -->

<svg
   version="1.1"
   id="svg2877"
   xml:space="preserve"
   width="800"
   height="800"
   viewBox="0 0 800 800"
   sodipodi:docname="person-color-silhouette-pdv.svg"
   inkscape:version="1.1.2 (b8e25be833, 2022-02-05)"
   xmlns:inkscape="http://www.inkscape.org/namespaces/inkscape"
   xmlns:sodipodi="http://sodipodi.sourceforge.net/DTD/sodipodi-0.dtd"
   xmlns="http://www.w3.org/2000/svg"
   xmlns:svg="http://www.w3.org/2000/svg"><defs
     id="defs2881"><clipPath
       clipPathUnits="userSpaceOnUse"
       id="clipPath2891"><path
         d="M 0,600 H 600 V 0 H 0 Z"
         id="path2889" /></clipPath></defs><sodipodi:namedview
     id="namedview2879"
     pagecolor="#ffffff"
     bordercolor="#666666"
     borderopacity="1.0"
     inkscape:pageshadow="2"
     inkscape:pageopacity="0.0"
     inkscape:pagecheckerboard="0"
     showgrid="false"
     inkscape:zoom="1.03875"
     inkscape:cx="400"
     inkscape:cy="400"
     inkscape:window-width="1920"
     inkscape:window-height="1018"
     inkscape:window-x="-8"
     inkscape:window-y="-8"
     inkscape:window-maximized="1"
     inkscape:current-layer="g2883" /><g
     id="g2883"
     inkscape:groupmode="layer"
     inkscape:label="person-color-silhouette-pdv"
     transform="matrix(1.3333333,0,0,-1.3333333,0,800)"><g
       id="g2885"><g
         id="g2887"
         clip-path="url(#clipPath2891)"><path
           d="m 278.985,536.937 52.913,-3.388 c -19.803,10.056 -37.063,9.784 -52.913,3.388"
           style="fill:#e04400;fill-opacity:1;fill-rule:nonzero;stroke:none"
           id="path2893" /><path
           d="m 443.482,115.867 h 45.436 c 0.098,3.118 -1.791,7.165 -4.957,11.9 l -40.418,-6.31 z"
           style="fill:#8ccfa4;fill-opacity:1;fill-rule:nonzero;stroke:none"
           id="path2895" /><path
           d="m 483.961,127.767 c -6.593,9.857 -18.723,22.697 -29.998,36.351 l -10.42,-42.661 z"
           style="fill:#9be293;fill-opacity:1;fill-rule:nonzero;stroke:none"
           id="path2897" /><path
           d="m 420.145,269.024 c -1.116,16.67 -1.944,29.704 -6.433,38.682 -4.505,4.816 -8.911,8.909 -13.23,12.421 l -24.431,-38.709 z"
           style="fill:#ffce00;fill-opacity:1;fill-rule:nonzero;stroke:none"
           id="path2899" /><path
           d="m 337.742,530.213 c -1.56,1.004 -3.19,1.96 -4.9,2.853 -0.316,0.164 -0.629,0.323 -0.944,0.483 l -52.913,3.388 c -7.134,-2.879 -13.984,-6.997 -20.651,-11.973 -2.797,-2.087 -5.274,-4.461 -7.473,-7.047 l 0.038,-0.013 z"
           style="fill:#df2c00;fill-opacity:1;fill-rule:nonzero;stroke:none"
           id="path2901" /><path
           d="m 350.543,182.837 91.467,-3.177 c -5.974,8.558 -10.729,17.117 -12.789,25.179 -1.209,4.737 -2.242,9.347 -3.133,13.828 l -50.037,62.751 z"
           style="fill:#f0d03f;fill-opacity:1;fill-rule:nonzero;stroke:none"
           id="path2903" /><path
           d="m 426.088,218.667 c -3.826,19.263 -4.99,36.135 -5.943,50.357 l -44.094,12.394 z"
           style="fill:#f6e63d;fill-opacity:1;fill-rule:nonzero;stroke:none"
           id="path2905" /><path
           d="m 370.365,434.796 c -0.15,1.969 -0.347,3.877 -0.585,5.596 -0.051,0.377 -0.106,0.761 -0.161,1.151 l -6.322,-7.605 z"
           style="fill:#fb6800;fill-opacity:1;fill-rule:nonzero;stroke:none"
           id="path2907" /><path
           d="m 443.543,121.457 10.42,42.661 c -4.216,5.105 -8.312,10.323 -11.953,15.542 l -91.467,3.177 z"
           style="fill:#c7df71;fill-opacity:1;fill-rule:nonzero;stroke:none"
           id="path2909" /><path
           d="m 376.051,281.418 24.431,38.709 c -25.11,20.42 -47.25,21.04 -68.556,28.063 0,0 0.177,1.503 0.463,3.778 l -5.761,-1.464 z"
           style="fill:#feb200;fill-opacity:1;fill-rule:nonzero;stroke:none"
           id="path2911" /><path
           d="m 369.619,441.543 c -0.986,6.955 -2.433,15.645 -2.433,20.561 0,5.19 4.841,11.996 3.226,17.503 -1.11,3.793 -4.685,20.5 -16.33,35.508 l 9.215,-81.177 z"
           style="fill:#f35c00;fill-opacity:1;fill-rule:nonzero;stroke:none"
           id="path2913" /><path
           d="m 435.109,115.867 h 8.373 l 0.061,5.59 z"
           style="fill:#b5b996;fill-opacity:1;fill-rule:nonzero;stroke:none"
           id="path2915" /><path
           d="m 330.613,125.709 3.268,-9.842 h 101.228 l 8.434,5.59 z"
           style="fill:#c2b267;fill-opacity:1;fill-rule:nonzero;stroke:none"
           id="path2917" /><path
           d="m 443.543,121.457 -93,61.38 -19.93,-57.128 z"
           style="fill:#d3bf55;fill-opacity:1;fill-rule:nonzero;stroke:none"
           id="path2919" /><path
           d="m 370.673,428.438 c -0.041,2.086 -0.148,4.256 -0.308,6.358 l -7.068,-0.858 z"
           style="fill:#ff8500;fill-opacity:1;fill-rule:nonzero;stroke:none"
           id="path2921" /><path
           d="m 332.389,351.968 c 0.582,4.643 1.618,12.506 2.523,17.386 l -8.284,-18.85 z"
           style="fill:#fe9400;fill-opacity:1;fill-rule:nonzero;stroke:none"
           id="path2923" /><path
           d="m 337.083,374.293 c 2.766,1.133 9.403,1.267 11.87,1.4 2.912,0.161 3.988,2.186 5.918,3.167 1.931,0.95 5.824,14.242 7.44,19.75 1.645,5.507 6.804,15.226 7.785,19.751 0.492,2.27 0.658,6.012 0.577,10.077 l -7.376,5.5 z"
           style="fill:#fe9400;fill-opacity:1;fill-rule:nonzero;stroke:none"
           id="path2925" /><path
           d="m 363.297,433.938 -9.215,81.177 c -4.269,5.501 -9.625,10.773 -16.34,15.098 l -86.843,-12.309 z"
           style="fill:#f04f00;fill-opacity:1;fill-rule:nonzero;stroke:none"
           id="path2927" /><path
           d="m 250.899,517.904 1.063,-83.7 111.335,-0.266 z"
           style="fill:#f64e00;fill-opacity:1;fill-rule:nonzero;stroke:none"
           id="path2929" /><path
           d="m 350.543,182.837 25.508,98.581 -96.986,0.531 z"
           style="fill:#fb9b00;fill-opacity:1;fill-rule:nonzero;stroke:none"
           id="path2931" /><path
           d="m 376.051,281.418 -49.423,69.086 -47.563,-68.555 z"
           style="fill:#ffa300;fill-opacity:1;fill-rule:nonzero;stroke:none"
           id="path2933" /><path
           d="m 251.962,434.204 74.666,-83.7 8.284,18.85 c 0.41,2.209 0.793,3.807 1.096,4.22 0.199,0.277 0.574,0.514 1.075,0.719 l 26.214,59.645 z"
           style="fill:#fd7700;fill-opacity:1;fill-rule:nonzero;stroke:none"
           id="path2935" /><path
           d="m 241.599,188.417 108.944,-5.58 -71.478,99.112 z"
           style="fill:#f56500;fill-opacity:1;fill-rule:nonzero;stroke:none"
           id="path2937" /><path
           d="m 323.879,115.867 h 10.002 l -3.268,9.842 z"
           style="fill:#bc5226;fill-opacity:1;fill-rule:nonzero;stroke:none"
           id="path2939" /><path
           d="m 330.613,125.709 19.93,57.128 -108.944,5.58 z"
           style="fill:#e07000;fill-opacity:1;fill-rule:nonzero;stroke:none"
           id="path2941" /><path
           d="m 326.628,350.504 -76.792,-7.972 29.229,-60.583 z"
           style="fill:#ff8800;fill-opacity:1;fill-rule:nonzero;stroke:none"
           id="path2943" /><path
           d="m 251.962,434.204 -2.126,-91.672 76.792,7.972 z"
           style="fill:#fd7400;fill-opacity:1;fill-rule:nonzero;stroke:none"
           id="path2945" /><path
           d="m 292.671,115.867 h 31.208 l 6.734,9.842 z"
           style="fill:#c22c01;fill-opacity:1;fill-rule:nonzero;stroke:none"
           id="path2947" /><path
           d="m 241.599,188.417 3.412,-72.55 h 47.66 l 37.942,9.842 z"
           style="fill:#d54200;fill-opacity:1;fill-rule:nonzero;stroke:none"
           id="path2949" /><path
           d="M 251.962,434.204 227.246,397.13 c -0.446,-14.129 9.692,-33.464 9.692,-33.464 0,0 -4.557,-2.911 -6.488,-2.911 -1.963,0 -6.805,0.981 -10.699,0.981 -3.894,0 -4.844,-1.298 -5.824,-2.911 -0.909,-1.496 -1.793,-4.952 -4.764,-9.582 l 40.673,-6.711 z"
           style="fill:#fa6200;fill-opacity:1;fill-rule:nonzero;stroke:none"
           id="path2951" /><path
           d="m 250.899,517.904 -4.377,-5.898 c -10.938,-17.256 -12.565,-40.415 -12.812,-53.764 -0.093,-5.035 0.455,-10.014 1.275,-14.54 l 16.977,-9.498 z"
           style="fill:#f03600;fill-opacity:1;fill-rule:nonzero;stroke:none"
           id="path2953" /><path
           d="M 249.836,342.532 188.19,293.641 279.065,281.949 Z"
           style="fill:#ff7200;fill-opacity:1;fill-rule:nonzero;stroke:none"
           id="path2955" /><path
           d="M 279.065,281.949 188.19,293.641 241.599,188.417 Z"
           style="fill:#fc6300;fill-opacity:1;fill-rule:nonzero;stroke:none"
           id="path2957" /><path
           d="m 188.19,293.641 -0.266,-120.104 53.675,14.88 z"
           style="fill:#f23700;fill-opacity:1;fill-rule:nonzero;stroke:none"
           id="path2959" /><path
           d="m 187.924,173.537 47.584,-57.67 h 9.503 l -3.412,72.55 z"
           style="fill:#db2f00;fill-opacity:1;fill-rule:nonzero;stroke:none"
           id="path2961" /><path
           d="m 249.836,342.532 -40.673,6.711 c -0.235,-0.365 -0.481,-0.737 -0.743,-1.117 -1.335,-1.938 -7.043,-6.851 -14.044,-12.534 l -6.186,-41.951 z"
           style="fill:#fa6800;fill-opacity:1;fill-rule:nonzero;stroke:none"
           id="path2963" /><path
           d="m 250.861,517.917 c -1.588,-1.868 -3.03,-3.847 -4.339,-5.911 l 4.377,5.898 z"
           style="fill:#e42300;fill-opacity:1;fill-rule:nonzero;stroke:none"
           id="path2965" /><path
           d="m 234.985,443.702 c 1.975,-10.89 5.529,-19.139 5.529,-19.139 0,0 -6.488,-7.121 -11.996,-20.731 -0.808,-1.996 -1.195,-4.272 -1.272,-6.702 l 24.716,37.074 z"
           style="fill:#f64d00;fill-opacity:1;fill-rule:nonzero;stroke:none"
           id="path2967" /><path
           d="m 177.199,115.867 h 58.309 l -47.584,57.67 z"
           style="fill:#ca1500;fill-opacity:1;fill-rule:nonzero;stroke:none"
           id="path2969" /><path
           d="m 177.199,115.867 10.725,57.67 -65.647,-37.678 c 0.147,-4.46 0.227,-8.813 0.191,-13.038 l 9.399,-6.954 z"
           style="fill:#c80b00;fill-opacity:1;fill-rule:nonzero;stroke:none"
           id="path2971" /><path
           d="m 132.262,254.59 c -0.311,-0.769 -0.626,-1.546 -0.945,-2.337 -9.38,-23.306 -11.161,-47.906 -10.84,-71.536 l 67.447,-7.18 z"
           style="fill:#e21c00;fill-opacity:1;fill-rule:nonzero;stroke:none"
           id="path2973" /><path
           d="m 188.19,293.641 -41.306,-5.344 c -3.783,-7.78 -8.47,-18.522 -14.622,-33.707 l 55.662,-81.053 z"
           style="fill:#f24600;fill-opacity:1;fill-rule:nonzero;stroke:none"
           id="path2975" /><path
           d="m 194.376,335.592 c -11.758,-9.547 -27.166,-21.269 -31.63,-24.721 -0.276,-0.214 -0.55,-0.429 -0.822,-0.647 l 26.266,-16.583 z"
           style="fill:#f55e00;fill-opacity:1;fill-rule:nonzero;stroke:none"
           id="path2977" /><path
           d="m 161.924,310.224 c -4.275,-3.435 -8.166,-7.79 -15.04,-21.927 l 41.306,5.344 z"
           style="fill:#f15700;fill-opacity:1;fill-rule:nonzero;stroke:none"
           id="path2979" /><path
           d="m 120.477,180.717 c 0.211,-15.593 1.336,-30.761 1.8,-44.858 l 65.647,37.678 z"
           style="fill:#cf1300;fill-opacity:1;fill-rule:nonzero;stroke:none"
           id="path2981" /><path
           d="m 122.468,122.821 c -0.019,-2.337 -0.073,-4.636 -0.173,-6.891 l 0.033,-0.063 h 9.539 z"
           style="fill:#b40012;fill-opacity:1;fill-rule:nonzero;stroke:none"
           id="path2983" /></g></g></g></svg>
